# xmcd
#
# Track frame offsets: 
#        150
#        14705
#        28866
#        44983
#        61033
#        77501
#        98211
#        110647
#        128399
#        142232
#        158034
#        186961
#
# Disc length: 2913 seconds
#
# Revision: 0
# Processed by: cddbd v1.5.1PL0 Copyright (c) Steve Scherf et al.
# Submitted via: ExactAudioCopy v0.95b1
#
DISCID=a60b5f0c
DTITLE=Directia 5 - o zi de primavara
DYEAR=2005
DGENRE=Pop
TTITLE0=Cu bratele deschise
TTITLE1=De ce nu mor stelele
TTITLE2=Si ce daca
TTITLE3=Cu nimeni nu te-as inlocui
TTITLE4=Crede in tine
TTITLE5=Stai... nu ma ocoli
TTITLE6=Taram de vis
TTITLE7=Un cantec pentru tine (cu Tina)
TTITLE8=Azi pot spera
TTITLE9=Te indragostesti
TTITLE10=O zi de primavara
TTITLE11=Cu nimeni nu te-as inlocui (video)
EXTD=
EXTT0=
EXTT1=
EXTT2=
EXTT3=
EXTT4=
EXTT5=
EXTT6=
EXTT7=
EXTT8=
EXTT9=
EXTT10=
EXTT11=
PLAYORDER=
